<mxfile host="app.diagrams.net" modified="2024-06-27T16:18:30.887Z" agent="Mozilla/5.0 (Windows NT 10.0; Win64; x64) AppleWebKit/537.36 (KHTML, like Gecko) Chrome/126.0.0.0 Safari/537.36" version="24.4.14" etag="jjCHz3FWC-_zFoKyMk1v" type="github">
  <diagram name="第 1 页" id="SzbBkQHy33OggzHtoNRB">
    <mxGraphModel>
      <root>
        <mxCell id="0" />
        <mxCell id="1" parent="0" />
      </root>
    </mxGraphModel>
  </diagram>
</mxfile>
